<svg xmlns="http://www.w3.org/2000/svg" xmlns:xlink="http://www.w3.org/1999/xlink" width="1024" zoomAndPan="magnify" viewBox="0 0 768 767.999994" height="1024" preserveAspectRatio="xMidYMid meet" version="1.0"><defs><clipPath id="f81b7f394f"><path d="M 76.242188 77.097656 L 691.964844 77.097656 L 691.964844 690.753906 L 76.242188 690.753906 Z M 76.242188 77.097656 " clip-rule="nonzero"/></clipPath></defs><g clip-path="url(#f81b7f394f)"><path fill="#f6c525" d="M 674.429688 264.109375 C 678.636719 264.109375 682.066406 267.535156 682.066406 271.75 C 682.066406 275.953125 678.636719 279.375 674.429688 279.375 C 670.210938 279.375 666.769531 275.953125 666.769531 271.75 C 666.773438 267.535156 670.210938 264.109375 674.429688 264.109375 Z M 559.640625 310.328125 C 560.5625 311.707031 562.097656 312.53125 563.753906 312.53125 L 631.09375 312.53125 C 632.476562 312.53125 633.804688 311.953125 634.746094 310.929688 L 660.683594 282.613281 C 663.902344 286.660156 668.863281 289.269531 674.429688 289.269531 C 684.105469 289.269531 691.96875 281.410156 691.96875 271.75 C 691.96875 262.074219 684.105469 254.214844 674.429688 254.214844 C 664.75 254.214844 656.875 262.082031 656.875 271.75 C 656.875 271.871094 656.886719 271.988281 656.894531 272.109375 L 628.910156 302.640625 L 566.410156 302.640625 L 554.703125 285.105469 C 553.777344 283.726562 552.238281 282.90625 550.582031 282.90625 L 521.078125 282.90625 L 521.078125 292.796875 L 547.929688 292.796875 Z M 489.546875 186.414062 C 485.324219 186.414062 481.882812 182.980469 481.882812 178.761719 C 481.890625 174.546875 485.324219 171.125 489.546875 171.125 C 493.757812 171.125 497.191406 174.546875 497.191406 178.761719 C 497.191406 182.980469 493.757812 186.414062 489.546875 186.414062 Z M 489.546875 161.230469 C 479.863281 161.230469 471.992188 169.097656 471.992188 178.761719 C 471.992188 186.21875 476.675781 192.585938 483.246094 195.121094 L 483.246094 240.957031 L 493.144531 240.957031 L 493.144531 195.933594 C 501.097656 194.273438 507.089844 187.203125 507.089844 178.761719 C 507.089844 169.097656 499.222656 161.230469 489.546875 161.230469 Z M 596.910156 331.3125 C 601.121094 331.3125 604.550781 334.742188 604.550781 338.949219 C 604.550781 343.164062 601.121094 346.585938 596.910156 346.585938 C 592.691406 346.585938 589.261719 343.164062 589.261719 338.949219 C 589.261719 334.742188 592.691406 331.3125 596.910156 331.3125 Z M 596.910156 356.484375 C 606.582031 356.484375 614.449219 348.621094 614.449219 338.949219 C 614.449219 329.285156 606.582031 321.421875 596.910156 321.421875 C 588.953125 321.421875 582.226562 326.746094 580.085938 334.007812 L 521.078125 334.007812 L 521.078125 343.902344 L 580.085938 343.902344 C 582.230469 351.160156 588.953125 356.484375 596.910156 356.484375 Z M 670.820312 430.777344 C 666.605469 430.777344 663.175781 427.351562 663.175781 423.136719 C 663.175781 418.925781 666.605469 415.5 670.820312 415.5 C 675.035156 415.5 678.476562 418.925781 678.476562 423.136719 C 678.476562 427.351562 675.039062 430.777344 670.820312 430.777344 Z M 670.820312 405.605469 C 662.648438 405.605469 655.78125 411.222656 653.84375 418.796875 L 598.355469 418.796875 C 596.6875 418.796875 595.132812 419.628906 594.21875 421.019531 L 569.109375 458.992188 L 521.148438 458.992188 C 521.125 458.992188 521.101562 458.996094 521.078125 458.996094 L 521.078125 468.875 C 521.101562 468.875 521.125 468.882812 521.148438 468.882812 L 571.773438 468.882812 C 573.433594 468.882812 574.988281 468.054688 575.902344 466.660156 L 601.011719 428.6875 L 654.1875 428.6875 C 656.519531 435.640625 663.085938 440.667969 670.8125 440.667969 C 680.496094 440.667969 688.371094 432.804688 688.371094 423.136719 C 688.375 413.472656 680.5 405.605469 670.820312 405.605469 Z M 626.167969 388.300781 C 630.382812 388.300781 633.8125 391.726562 633.8125 395.929688 C 633.8125 400.148438 630.382812 403.582031 626.167969 403.582031 C 621.957031 403.582031 618.527344 400.148438 618.527344 395.929688 C 618.527344 391.726562 621.957031 388.300781 626.167969 388.300781 Z M 550.082031 362.246094 L 566.914062 399.488281 C 567.703125 401.257812 569.480469 402.402344 571.425781 402.402344 L 609.875 402.402344 C 612.457031 408.878906 618.78125 413.476562 626.167969 413.476562 C 635.84375 413.476562 643.710938 405.605469 643.710938 395.929688 C 643.710938 386.269531 635.84375 378.410156 626.167969 378.410156 C 617.667969 378.410156 610.566406 384.480469 608.964844 392.507812 L 574.617188 392.507812 L 557.785156 355.265625 C 556.988281 353.492188 555.21875 352.351562 553.273438 352.351562 L 521.078125 352.351562 L 521.078125 362.246094 Z M 415.105469 90.582031 C 419.328125 90.582031 422.765625 94.011719 422.765625 98.226562 C 422.765625 102.4375 419.328125 105.863281 415.105469 105.863281 C 410.898438 105.863281 407.476562 102.433594 407.476562 98.226562 C 407.476562 94.011719 410.902344 90.582031 415.105469 90.582031 Z M 410.773438 115.191406 L 410.773438 170.652344 C 410.773438 172.308594 411.605469 173.851562 412.992188 174.777344 L 450.980469 199.871094 L 450.980469 240.957031 L 460.878906 240.957031 L 460.878906 197.210938 C 460.878906 195.550781 460.046875 194.003906 458.660156 193.082031 L 420.671875 167.988281 L 420.671875 114.839844 C 427.628906 112.507812 432.660156 105.949219 432.660156 98.226562 C 432.660156 88.554688 424.789062 80.691406 415.105469 80.691406 C 405.4375 80.691406 397.574219 88.554688 397.574219 98.226562 C 397.574219 106.394531 403.203125 113.257812 410.773438 115.191406 Z M 590.230469 505.171875 C 586.019531 505.171875 582.601562 501.738281 582.601562 497.523438 C 582.601562 493.3125 586.019531 489.890625 590.230469 489.890625 C 594.453125 489.890625 597.886719 493.3125 597.886719 497.523438 C 597.886719 501.738281 594.453125 505.171875 590.230469 505.171875 Z M 590.230469 480 C 582.78125 480 576.425781 484.671875 573.886719 491.230469 L 521.152344 491.230469 C 521.128906 491.230469 521.101562 491.238281 521.078125 491.238281 L 521.078125 501.113281 C 521.101562 501.117188 521.128906 501.125 521.152344 501.125 L 573.078125 501.125 C 574.742188 509.074219 581.796875 515.066406 590.230469 515.066406 C 599.90625 515.066406 607.789062 507.1875 607.789062 497.519531 C 607.789062 487.859375 599.914062 480 590.230469 480 Z M 97.390625 353.777344 C 93.183594 353.777344 89.753906 350.355469 89.753906 346.15625 C 89.753906 341.9375 93.179688 338.5 97.390625 338.5 C 101.609375 338.5 105.039062 341.9375 105.039062 346.15625 C 105.039062 350.359375 101.609375 353.777344 97.390625 353.777344 Z M 192.320312 302.609375 L 167.214844 340.574219 L 114.011719 340.574219 C 111.675781 333.628906 105.117188 328.605469 97.390625 328.605469 C 87.71875 328.605469 79.847656 336.476562 79.847656 346.152344 C 79.847656 355.816406 87.71875 363.675781 97.390625 363.675781 C 105.574219 363.675781 112.445312 358.046875 114.378906 350.464844 L 169.875 350.464844 C 171.535156 350.464844 173.085938 349.640625 174.003906 348.25 L 199.117188 310.292969 L 232.101562 310.292969 L 232.101562 300.394531 L 196.453125 300.394531 C 194.785156 300.394531 193.242188 301.226562 192.320312 302.609375 Z M 365.261719 632.628906 C 361.054688 632.628906 357.632812 629.199219 357.632812 624.992188 C 357.632812 620.773438 361.054688 617.347656 365.261719 617.347656 C 369.484375 617.347656 372.917969 620.773438 372.917969 624.992188 C 372.917969 629.199219 369.484375 632.628906 365.261719 632.628906 Z M 368.691406 607.792969 L 368.691406 573.476562 L 405.980469 556.648438 C 407.753906 555.847656 408.894531 554.085938 408.894531 552.144531 L 408.894531 528.335938 L 398.992188 528.335938 L 398.992188 548.945312 L 361.703125 565.769531 C 359.933594 566.570312 358.789062 568.332031 358.789062 570.28125 L 358.789062 608.710938 C 352.320312 611.292969 347.726562 617.613281 347.726562 624.992188 C 347.726562 634.65625 355.59375 642.523438 365.261719 642.523438 C 374.941406 642.523438 382.820312 634.65625 382.820312 624.992188 C 382.820312 616.492188 376.730469 609.394531 368.691406 607.792969 Z M 263.621094 596.726562 C 259.410156 596.726562 255.980469 593.296875 255.980469 589.085938 C 255.980469 584.878906 259.410156 581.445312 263.621094 581.445312 C 267.84375 581.445312 271.265625 584.878906 271.265625 589.085938 C 271.265625 593.296875 267.84375 596.726562 263.621094 596.726562 Z M 269.929688 572.746094 L 269.929688 528.335938 L 260.027344 528.335938 L 260.027344 571.929688 C 252.074219 573.589844 246.082031 580.648438 246.082031 589.085938 C 246.082031 598.753906 253.949219 606.621094 263.621094 606.621094 C 273.300781 606.621094 281.164062 598.753906 281.164062 589.085938 C 281.164062 581.640625 276.492188 575.28125 269.929688 572.746094 Z M 177.96875 279.386719 C 173.761719 279.386719 170.335938 275.960938 170.335938 271.75 C 170.335938 267.535156 173.761719 264.109375 177.96875 264.109375 C 182.191406 264.109375 185.628906 267.535156 185.628906 271.75 C 185.628906 275.960938 182.191406 279.386719 177.96875 279.386719 Z M 177.972656 254.214844 C 168.300781 254.214844 160.4375 262.082031 160.4375 271.75 C 160.4375 281.414062 168.300781 289.277344 177.96875 289.277344 C 185.421875 289.277344 191.792969 284.605469 194.332031 278.046875 L 232.101562 278.046875 L 232.101562 268.15625 L 195.152344 268.15625 C 193.488281 260.203125 186.414062 254.214844 177.972656 254.214844 Z M 93.808594 505.171875 C 89.585938 505.171875 86.140625 501.75 86.140625 497.546875 C 86.140625 493.332031 89.585938 489.910156 93.808594 489.910156 C 98.023438 489.910156 101.453125 493.332031 101.453125 497.546875 C 101.453125 501.75 98.023438 505.171875 93.808594 505.171875 Z M 208.589844 458.949219 C 207.667969 457.574219 206.128906 456.75 204.472656 456.75 L 137.136719 456.75 C 135.75 456.75 134.417969 457.328125 133.484375 458.351562 L 107.535156 486.660156 C 104.324219 482.613281 99.367188 480.011719 93.808594 480.011719 C 84.125 480.011719 76.242188 487.878906 76.242188 497.542969 C 76.242188 507.207031 84.125 515.066406 93.808594 515.066406 C 103.484375 515.066406 111.351562 507.207031 111.351562 497.542969 C 111.351562 497.414062 111.335938 497.292969 111.332031 497.167969 L 139.3125 466.640625 L 201.820312 466.640625 L 213.515625 484.160156 C 214.4375 485.539062 215.976562 486.363281 217.625 486.363281 L 232.101562 486.363281 L 232.101562 476.472656 L 220.277344 476.472656 Z M 171.3125 437.976562 C 167.09375 437.976562 163.660156 434.546875 163.660156 430.328125 C 163.660156 426.117188 167.09375 422.699219 171.3125 422.699219 C 175.527344 422.699219 178.945312 426.117188 178.945312 430.328125 C 178.945312 434.546875 175.527344 437.976562 171.3125 437.976562 Z M 171.3125 412.808594 C 161.636719 412.808594 153.761719 420.664062 153.761719 430.328125 C 153.761719 439.996094 161.636719 447.875 171.3125 447.875 C 179.269531 447.875 185.984375 442.546875 188.125 435.277344 L 232.101562 435.277344 L 232.101562 425.378906 L 188.125 425.378906 C 185.980469 418.121094 179.269531 412.808594 171.3125 412.808594 Z M 338.0625 677.261719 C 333.84375 677.261719 330.421875 673.839844 330.421875 669.625 C 330.421875 665.410156 333.84375 661.984375 338.0625 661.984375 C 342.277344 661.984375 345.707031 665.410156 345.707031 669.625 C 345.703125 673.839844 342.277344 677.261719 338.0625 677.261719 Z M 342.394531 652.660156 L 342.394531 597.191406 C 342.394531 595.527344 341.5625 593.984375 340.175781 593.058594 L 302.1875 567.964844 L 302.1875 528.335938 L 292.292969 528.335938 L 292.292969 570.625 C 292.292969 572.285156 293.121094 573.835938 294.507812 574.757812 L 332.496094 599.851562 L 332.496094 653.011719 C 325.546875 655.347656 320.519531 661.90625 320.519531 669.625 C 320.519531 679.300781 328.390625 687.15625 338.0625 687.15625 C 347.738281 687.15625 355.605469 679.300781 355.605469 669.625 C 355.605469 661.457031 349.972656 654.589844 342.394531 652.660156 Z M 142.058594 380.960938 C 137.835938 380.960938 134.402344 377.542969 134.402344 373.335938 C 134.402344 369.121094 137.835938 365.691406 142.058594 365.691406 C 146.269531 365.691406 149.6875 369.121094 149.6875 373.335938 C 149.6875 377.542969 146.265625 380.960938 142.058594 380.960938 Z M 201.316406 369.769531 C 200.515625 368 198.75 366.859375 196.800781 366.859375 L 158.332031 366.859375 C 155.746094 360.390625 149.433594 355.800781 142.0625 355.800781 C 132.375 355.800781 124.503906 363.667969 124.503906 373.339844 C 124.503906 383 132.375 390.851562 142.0625 390.851562 C 150.558594 390.851562 157.65625 384.78125 159.25 376.75 L 193.605469 376.75 L 210.425781 414.003906 C 211.226562 415.777344 212.992188 416.917969 214.933594 416.917969 L 232.101562 416.917969 L 232.101562 407.019531 L 218.132812 407.019531 Z M 422.300781 603.382812 C 418.085938 603.382812 414.65625 599.960938 414.65625 595.746094 C 414.65625 591.53125 418.085938 588.109375 422.300781 588.109375 C 426.507812 588.109375 429.925781 591.53125 429.925781 595.746094 C 429.925781 599.960938 426.507812 603.382812 422.300781 603.382812 Z M 427.246094 578.9375 L 427.246094 528.335938 L 417.355469 528.335938 L 417.355469 578.9375 C 410.082031 581.078125 404.757812 587.796875 404.757812 595.746094 C 404.757812 605.410156 412.625 613.277344 422.300781 613.277344 C 431.964844 613.277344 439.828125 605.410156 439.828125 595.746094 C 439.828125 587.796875 434.511719 581.082031 427.246094 578.9375 Z M 330.871094 164.460938 C 335.082031 164.460938 338.511719 167.890625 338.511719 172.109375 C 338.511719 176.316406 335.082031 179.746094 330.871094 179.746094 C 326.65625 179.746094 323.230469 176.316406 323.230469 172.109375 C 323.230469 167.890625 326.65625 164.460938 330.871094 164.460938 Z M 325.921875 188.910156 L 325.921875 240.957031 L 335.816406 240.957031 L 335.816406 188.910156 C 343.089844 186.773438 348.414062 180.050781 348.414062 172.109375 C 348.414062 162.4375 340.542969 154.570312 330.871094 154.570312 C 321.195312 154.570312 313.328125 162.4375 313.328125 172.109375 C 313.328125 180.050781 318.652344 186.773438 325.921875 188.910156 Z M 387.898438 135.222656 C 392.109375 135.222656 395.542969 138.648438 395.542969 142.859375 C 395.542969 147.074219 392.109375 150.496094 387.898438 150.496094 C 383.6875 150.496094 380.265625 147.074219 380.265625 142.859375 C 380.265625 138.648438 383.6875 135.222656 387.898438 135.222656 Z M 384.46875 160.050781 L 384.46875 194.378906 L 347.1875 211.199219 C 345.417969 212 344.273438 213.765625 344.273438 215.710938 L 344.273438 240.957031 L 354.175781 240.957031 L 354.175781 218.902344 L 391.453125 202.082031 C 393.21875 201.28125 394.371094 199.515625 394.371094 197.570312 L 394.371094 159.140625 C 400.84375 156.558594 405.4375 150.242188 405.4375 142.863281 C 405.4375 133.195312 397.566406 125.332031 387.898438 125.332031 C 378.226562 125.332031 370.367188 133.195312 370.367188 142.863281 C 370.367188 151.355469 376.433594 158.449219 384.46875 160.050781 Z M 263.605469 102.265625 C 259.398438 102.265625 255.980469 98.847656 255.980469 94.644531 C 255.980469 90.425781 259.402344 86.992188 263.605469 86.992188 C 267.828125 86.992188 271.265625 90.425781 271.265625 94.644531 C 271.265625 98.847656 267.832031 102.265625 263.605469 102.265625 Z M 304.433594 205.246094 L 304.433594 137.953125 C 304.433594 136.5625 303.847656 135.242188 302.828125 134.304688 L 274.5 108.359375 C 278.554688 105.148438 281.164062 100.195312 281.164062 94.644531 C 281.164062 84.96875 273.292969 77.097656 263.609375 77.097656 C 253.945312 77.097656 246.082031 84.96875 246.082031 94.644531 C 246.082031 104.304688 253.945312 112.160156 263.609375 112.160156 C 263.742188 112.160156 263.859375 112.148438 263.988281 112.140625 L 294.53125 140.128906 L 294.53125 202.605469 L 276.988281 214.28125 C 275.613281 215.199219 274.789062 216.742188 274.789062 218.402344 L 274.789062 240.957031 L 284.683594 240.957031 L 284.683594 221.046875 L 302.234375 209.363281 C 303.609375 208.453125 304.433594 206.902344 304.433594 205.246094 Z M 489.546875 680.859375 C 485.332031 680.859375 481.902344 677.429688 481.902344 673.222656 C 481.902344 669.003906 485.332031 665.570312 489.546875 665.570312 C 493.757812 665.570312 497.191406 669.003906 497.191406 673.222656 C 497.191406 677.429688 493.761719 680.859375 489.546875 680.859375 Z M 489.546875 655.675781 C 489.410156 655.675781 489.292969 655.691406 489.15625 655.691406 L 458.636719 627.734375 L 458.636719 565.261719 L 476.179688 553.566406 C 477.558594 552.640625 478.386719 551.109375 478.386719 549.449219 L 478.386719 528.335938 L 468.480469 528.335938 L 468.480469 546.796875 L 450.9375 558.496094 C 449.5625 559.421875 448.738281 560.960938 448.738281 562.613281 L 448.738281 629.910156 C 448.738281 631.296875 449.316406 632.625 450.34375 633.558594 L 478.652344 659.492188 C 474.605469 662.707031 472.003906 667.664062 472.003906 673.222656 C 472.003906 682.890625 479.875 690.753906 489.546875 690.753906 C 499.222656 690.753906 507.089844 682.890625 507.089844 673.222656 C 507.09375 663.546875 499.222656 655.675781 489.546875 655.675781 " fill-opacity="1" fill-rule="nonzero"/></g><path fill="#ffffff" d="M 281.214844 479.953125 L 281.214844 289.320312 L 471.964844 289.320312 L 471.964844 479.953125 Z M 498.285156 240.957031 L 254.886719 240.957031 C 242.34375 240.957031 232.101562 251.1875 232.101562 263.707031 L 232.101562 505.574219 C 232.101562 518.066406 242.34375 528.335938 254.886719 528.335938 L 498.285156 528.335938 C 510.832031 528.335938 521.078125 518.066406 521.078125 505.574219 L 521.078125 263.707031 C 521.078125 251.1875 510.832031 240.957031 498.285156 240.957031 " fill-opacity="1" fill-rule="nonzero"/><path fill="#bcbbc3" d="M 281.214844 479.953125 L 471.964844 479.953125 L 471.964844 289.320312 L 281.214844 289.320312 L 281.214844 479.953125 " fill-opacity="1" fill-rule="nonzero"/></svg>